<svg width="676" height="77" viewBox="0 0 676 77" fill="none" xmlns="http://www.w3.org/2000/svg">
<path d="M97.6763 23.7087C59.8974 18.7623 40.4973 13.6978 9.35255 0.226387L0.87973 26.2929C34.5215 40.0133 53.9586 44.817 89.1475 50.7736L97.6763 23.7087Z" fill="white"/>
<path d="M239.023 40.3661C200.963 42.1258 180.975 40.5442 147.949 32.747L144.182 59.8958C179.709 67.4999 199.688 68.8184 235.376 68.5077L239.023 40.3661Z" fill="white"/>
<path d="M383.255 46.1924C345.378 50.3162 325.33 49.9809 291.884 44.2532L289.812 71.5837C325.744 76.9632 345.766 77.0364 381.365 74.5063L383.255 46.1924Z" fill="white"/>
<path d="M528.053 30.4026C491.352 40.6389 471.518 43.5724 437.585 43.3671L439.991 70.6702C476.319 70.1272 496.086 66.9393 530.798 58.6463L528.053 30.4026Z" fill="white"/>
<path d="M670.027 1.68598C634.537 15.5484 615.096 20.4547 581.314 23.6507L586.444 50.5752C622.535 46.3946 641.882 41.242 675.589 29.5124L670.027 1.68598Z" fill="white"/>
</svg>
